HIERARCHY
ROOT RootJoint
{
    OFFSET   0.000000   0.000000   0.000000
    CHANNELS 6 Xposition Yposition Zposition Xrotation Yrotation Zrotation
    JOINT pelvis_lowerback
    {
        OFFSET   0.000000   0.093605   0.000000
        CHANNELS 3 Xrotation Yrotation Zrotation
        JOINT lowerback_torso
        {
            OFFSET   0.000000   0.100000   0.000000
            CHANNELS 3 Xrotation Yrotation Zrotation
            JOINT torso_head
            {
                OFFSET   0.000000   0.282350   0.000000
                CHANNELS 3 Xrotation Yrotation Zrotation
                End Site
                {
                    OFFSET   0.000000   0.192650   0.000000
                }
            }
            JOINT rTorso_Clavicle
            {
                OFFSET  -0.001000   0.157500   0.000000
                CHANNELS 3 Xrotation Yrotation Zrotation
                JOINT rShoulder
                {
                    OFFSET  -0.117647   0.000000   0.000000
                    CHANNELS 3 Xrotation Yrotation Zrotation
                    JOINT rElbow
                    {
                        OFFSET  -0.245000   0.000000   0.000000
                        CHANNELS 3 Xrotation Yrotation Zrotation
                        JOINT rWrist
                        {
                            OFFSET  -0.240000   0.000000   0.000000
                            CHANNELS 3 Xrotation Yrotation Zrotation
                            End Site
                            {
                                OFFSET  -0.116353  -0.002500   0.000000
                            }
                        }
                    }
                }
            }
            JOINT lTorso_Clavicle
            {
                OFFSET   0.001000   0.157500   0.000000
                CHANNELS 3 Xrotation Yrotation Zrotation
                JOINT lShoulder
                {
                    OFFSET   0.117647   0.000000   0.000000
                    CHANNELS 3 Xrotation Yrotation Zrotation
                    JOINT lElbow
                    {
                        OFFSET   0.245000   0.000000   0.000000
                        CHANNELS 3 Xrotation Yrotation Zrotation
                        JOINT lWrist
                        {
                            OFFSET   0.240000   0.000000   0.000000
                            CHANNELS 3 Xrotation Yrotation Zrotation
                            End Site
                            {
                                OFFSET   0.116353  -0.002500   0.000000
                            }
                        }
                    }
                }
            }
        }
    }
    JOINT rHip
    {
        OFFSET  -0.100000  -0.051395   0.000000
        CHANNELS 3 Xrotation Yrotation Zrotation
        JOINT rKnee
        {
            OFFSET   0.000000  -0.410000   0.000000
            CHANNELS 3 Xrotation Yrotation Zrotation
            JOINT rAnkle
            {
                OFFSET   0.000000  -0.390000   0.000000
                CHANNELS 3 Xrotation Yrotation Zrotation
                JOINT rToeJoint
                {
                    OFFSET   0.000000  -0.050000   0.130000
                    CHANNELS 3 Xrotation Yrotation Zrotation
                    End Site
                    {
                        OFFSET  -0.010000   0.002000   0.060000
                    }
                }
            }
        }
    }
    JOINT lHip
    {
        OFFSET   0.100000  -0.051395   0.000000
        CHANNELS 3 Xrotation Yrotation Zrotation
        JOINT lKnee
        {
            OFFSET   0.000000  -0.410000   0.000000
            CHANNELS 3 Xrotation Yrotation Zrotation
            JOINT lAnkle
            {
                OFFSET   0.000000  -0.390000   0.000000
                CHANNELS 3 Xrotation Yrotation Zrotation
                JOINT lToeJoint
                {
                    OFFSET   0.000000  -0.050000   0.130000
                    CHANNELS 3 Xrotation Yrotation Zrotation
                    End Site
                    {
                        OFFSET   0.010000   0.002000   0.060000
                    }
                }
            }
        }
    }
}
MOTION
Frames: 5
Frame Time:   0.008333
 -2.717946   0.875975   4.095596 -12.658967 -40.901481  -7.039611  22.595978   1.106888  -2.545852   6.196693  -0.594284  -6.514241   2.833158  -3.727307   3.742768  -3.929941   2.244783  -6.440951   0.293014   4.710393  30.621358 -179.759944  77.231601 179.727751  -0.180658   4.261290   4.068283   2.043823   0.633935  -6.446831   2.319525   4.510399 -35.129553   0.024322 -65.685488   0.032157  -0.116292  -2.263915   4.467667 -10.034857 -10.551421  -7.290062  45.544016   0.013305   0.017238 -18.350186 -12.350632  -2.033427 -10.886795   0.011807  -0.002310  -6.698527  13.946573  14.214724  42.252887   0.002002   0.002512 -14.123432  13.845266   0.996916  -5.414516  -0.000619  -0.001364
 -2.721719   0.878104   4.095419 -12.729919 -41.378720  -7.124373  22.264233   1.178740  -2.598690   6.066917  -0.457817  -6.506155   2.890830  -3.809199   3.759111  -4.073682   1.866065  -6.429818  -0.291179   4.435994  30.300629 -179.790108  76.700030 179.761936  -0.156552   4.466549   4.019141   2.180763   1.290945  -6.575926   2.135866   5.028196 -35.410460   0.020261 -65.626610   0.026787  -0.147367  -1.984327   4.515195  -9.360636 -10.415458  -6.971951  44.527903   0.012392   0.015083 -18.346498 -11.996088  -2.064082 -10.679594   0.009004  -0.001685  -6.404745  13.565298  14.416692  42.250754   0.001615   0.002020 -13.416817  13.530430   0.799757  -5.011223  -0.002157  -0.004890
 -2.725428   0.880069   4.095225 -12.777819 -41.810125  -7.179438  21.934361   1.254448  -2.658738   5.927021  -0.332253  -6.496253   2.947942  -3.882289   3.765154  -4.212046   1.474797  -6.418406  -0.837226   4.147693  29.993901 -179.816532  76.224833 179.791852  -0.122397   4.556814   3.858899   2.293936   1.922236  -6.680457   1.949086   5.513190 -35.663095   0.016605 -65.599189   0.021939  -0.174190  -1.872677   4.671409  -8.716127 -10.266710  -6.675579  43.551586   0.011372   0.012958 -18.356973 -11.654749  -2.086985 -10.430731   0.006688  -0.001060  -6.143445  13.172111  14.649533  42.217271   0.001510   0.001760 -12.761811  13.231431   0.620687  -4.650900  -0.003335  -0.007036
 -2.729033   0.881882   4.095030 -12.816633 -42.208315  -7.207276  21.613121   1.324401  -2.723751   5.783327  -0.219942  -6.491860   3.000625  -3.949622   3.767188  -4.341315   1.095604  -6.412762  -1.346031   3.869729  29.701304 -179.839601  75.786551 179.817930  -0.085195   4.595977   3.669512   2.395443   2.515340  -6.768027   1.770922   5.968214 -35.889362   0.013591 -65.577611   0.017942  -0.197924  -1.813295   4.867824  -8.108268 -10.116728  -6.415110  42.630387   0.010374   0.011065 -18.372353 -11.336326  -2.108061 -10.167772   0.004843  -0.000531  -5.908715  12.794526  14.900186  42.174150   0.001487   0.001569 -12.152506  12.951092   0.457837  -4.320908  -0.004214  -0.008217
 -2.732511   0.883555   4.094843 -12.851906 -42.579708  -7.212844  21.303323   1.387838  -2.790582   5.639902  -0.119308  -6.492554   3.048848  -4.012270   3.767299  -4.462038   0.735540  -6.411366  -1.820916   3.607856  29.423493 -179.859710  75.379040 179.840659  -0.047867   4.616704   3.477855   2.487965   3.068929  -6.845706   1.603166   6.393546 -36.095317   0.011133 -65.558583   0.014683  -0.220047  -1.769820   5.074711  -7.535920  -9.967391  -6.190677  41.765114   0.009429   0.009429 -18.390626 -11.041003  -2.128424  -9.899790   0.003396  -0.000108  -5.695960  12.435936  15.161704  42.128237   0.001481   0.001405 -11.585326  12.688490   0.309464  -4.018574  -0.004830  -0.008719
